<?xml version="1.0" encoding="UTF-8" standalone="no"?>
<svg
   xmlns:dc="http://purl.org/dc/elements/1.1/"
   xmlns:cc="http://creativecommons.org/ns#"
   xmlns:rdf="http://www.w3.org/1999/02/22-rdf-syntax-ns#"
   xmlns:svg="http://www.w3.org/2000/svg"
   xmlns="http://www.w3.org/2000/svg"
   xmlns:sodipodi="http://sodipodi.sourceforge.net/DTD/sodipodi-0.dtd"
   xmlns:inkscape="http://www.inkscape.org/namespaces/inkscape"
   version="1.1"
   id="svg2"
   xml:space="preserve"
   width="409.51733"
   height="387.81866"
   viewBox="0 0 409.51733 387.81866"
   sodipodi:docname="L&amp;G Umbrella RGB 4C Black.ai"><metadata
     id="metadata8"><rdf:RDF><cc:Work
         rdf:about=""><dc:format>image/svg+xml</dc:format><dc:type
           rdf:resource="http://purl.org/dc/dcmitype/StillImage" /></cc:Work></rdf:RDF></metadata><defs
     id="defs6"><clipPath
       clipPathUnits="userSpaceOnUse"
       id="clipPath18"><path
         d="M 0,290.864 H 307.138 V 0 H 0 Z"
         id="path16" /></clipPath></defs><sodipodi:namedview
     pagecolor="#ffffff"
     bordercolor="#666666"
     borderopacity="1"
     objecttolerance="10"
     gridtolerance="10"
     guidetolerance="10"
     inkscape:pageopacity="0"
     inkscape:pageshadow="2"
     inkscape:window-width="640"
     inkscape:window-height="480"
     id="namedview4" /><g
     id="g10"
     inkscape:groupmode="layer"
     inkscape:label="L&amp;G Umbrella RGB 4C Black"
     transform="matrix(1.3333333,0,0,-1.3333333,0,387.81867)"><g
       id="g12"><g
         id="g14"
         clip-path="url(#clipPath18)"><g
           id="g20"
           transform="translate(213.3881,185.9816)"><path
             d="m 0,0 c -22.047,26.176 -54.683,40.838 -89.535,40.225 l -1.477,-0.027 1.327,0.649 C -50.757,59.86 -4.987,56.548 29.763,32.199 L 30.24,31.864 29.706,31.631 C 28.469,31.089 27.236,30.493 26.044,29.859 22.407,27.925 18.982,25.56 15.864,22.827 8.879,16.707 3.587,8.849 0.561,0.104 L 0.372,-0.441 Z"
             style="fill:#028844;fill-opacity:1;fill-rule:nonzero;stroke:none"
             id="path22" /></g><g
           id="g24"
           transform="translate(100.1996,125.6036)"><path
             d="m 0,0 c -8.943,2.381 -18.416,2.388 -27.396,0.02 -4.009,-1.057 -7.886,-2.575 -11.524,-4.508 -1.191,-0.634 -2.374,-1.323 -3.516,-2.045 l -0.492,-0.313 -0.01,0.584 C -43.693,36.162 -20.846,75.959 16.687,97.6 l 1.279,0.737 -0.847,-1.209 C -2.88,68.575 -8.974,33.322 0.399,0.406 l 0.158,-0.555 z"
             style="fill:#e22922;fill-opacity:1;fill-rule:nonzero;stroke:none"
             id="path26" /></g><g
           id="g28"
           transform="translate(158.1137,146.5216)"><path
             d="m 0,0 c -10.076,0.998 -20.418,-0.656 -29.904,-4.784 -1.483,-0.646 -2.955,-1.356 -4.375,-2.111 -6.24,-3.317 -11.766,-7.62 -16.426,-12.788 l -0.382,-0.423 -0.173,0.542 c -10.317,32.212 -5.629,67.36 12.861,96.432 l 0.311,0.488 38.679,-77.415 z"
             style="fill:#0076d6;fill-opacity:1;fill-rule:nonzero;stroke:none"
             id="path30" /></g><g
           id="g32"
           transform="translate(121.3881,224.6017)"><path
             d="m 0,0 0.579,-0.015 c 34.442,-0.927 66.202,-16.696 87.137,-43.261 l 0.353,-0.448 -0.564,-0.079 c -6.891,-0.973 -13.548,-3.149 -19.787,-6.467 -1.42,-0.754 -2.832,-1.578 -4.196,-2.446 -8.728,-5.557 -15.882,-13.205 -20.69,-22.117 l -0.281,-0.522 z"
             style="fill:#ffd500;fill-opacity:1;fill-rule:nonzero;stroke:none"
             id="path34" /></g><g
           id="g36"
           transform="translate(229.0356,209.0548)"><path
             d="M 0,0 C -7.133,-6.25 -12.363,-14.099 -15.396,-22.863 -37.729,3.652 -70.991,18.08 -105.188,17.479 -65.271,36.977 -19.652,32.386 13.927,8.857 8.917,6.664 4.224,3.7 0,0 m -44.302,-36.893 c -8.885,-5.657 -15.988,-13.314 -20.801,-22.238 l -0.989,1.751 -40.985,72.585 c 33.535,-0.904 65.674,-16.217 86.889,-43.137 -8.437,-1.192 -16.649,-4.21 -24.114,-8.961 m -19.296,-32.048 z m -8.19,8.533 0.898,-1.799 c -10.089,1 -20.41,-0.607 -30.067,-4.81 -8.113,-3.532 -15.207,-8.652 -20.913,-14.98 -10.454,32.643 -5.178,67.849 12.826,96.156 z m 0.906,-1.814 -0.008,0.015 h 0.001 l 0.03,-0.003 z m -57.87,-20.914 c -8.962,2.387 -18.394,2.44 -27.564,0.021 -5.429,-1.432 -10.511,-3.665 -15.13,-6.592 -0.73,40.995 20.974,81.382 59.461,103.571 -19.622,-28.014 -26.261,-63.657 -16.767,-97 m 150.13,94.619 c -35.199,25.414 -85.24,29.7 -129.047,7.34 l -7.992,12.23 c -0.305,0.473 -0.829,0.566 -1.278,0.327 -0.45,-0.239 -0.666,-0.726 -0.444,-1.243 l 5.669,-13.464 c -43.032,-23.815 -67.463,-67.696 -66.076,-111.089 0.074,-2.331 0.23,-4.659 0.455,-6.983 1.911,1.966 3.974,3.764 6.176,5.371 1.83,1.335 3.755,2.542 5.763,3.609 3.279,1.744 6.78,3.118 10.456,4.088 9.191,2.424 18.679,2.091 27.551,-0.839 0.205,-0.068 0.412,-0.132 0.618,-0.203 1.528,-0.527 3.036,-1.132 4.52,-1.814 0.776,1.132 1.595,2.233 2.456,3.301 0.292,0.364 0.58,0.729 0.882,1.084 4.431,5.215 9.869,9.593 16.082,12.897 1.308,0.695 2.651,1.343 4.026,1.942 9.973,4.34 20.712,5.645 31.032,3.896 l 44.948,-84.536 c 1.658,-3.119 4.269,-5.407 7.283,-6.717 1.769,-0.769 3.675,-1.197 5.613,-1.251 0.643,-0.019 1.287,0.002 1.933,0.067 1.883,0.192 3.761,0.734 5.533,1.676 7.33,3.898 10.123,13.032 6.226,20.363 l -2.627,4.941 c -0.85,1.597 -2.833,2.204 -4.432,1.354 -1.598,-0.85 -2.204,-2.833 -1.354,-4.432 l 2.627,-4.94 c 2.201,-4.14 0.624,-9.299 -3.516,-11.5 -2.836,-1.508 -6.149,-1.241 -8.664,0.407 -0.017,0.011 -0.033,0.022 -0.051,0.033 -0.15,0.1 -0.294,0.211 -0.437,0.322 -1.528,1.252 -2.749,3.51 -2.749,3.51 l -44.547,83.78 c 4.32,9.533 11.407,17.706 20.582,23.547 1.265,0.805 2.553,1.556 3.862,2.252 6.213,3.303 12.884,5.364 19.685,6.121 0.462,0.051 0.926,0.086 1.391,0.126 1.367,0.115 2.738,0.178 4.111,0.189 0.264,1.612 0.606,3.2 1.023,4.762 0.057,0.21 0.119,0.417 0.178,0.626 2.532,8.993 7.561,17.046 14.711,23.309 2.858,2.505 5.957,4.64 9.235,6.383 2.008,1.068 4.085,1.988 6.216,2.76 2.562,0.927 5.206,1.631 7.906,2.115 -1.802,1.487 -3.644,2.918 -5.535,4.283"
             style="fill:#000000;fill-opacity:1;fill-rule:nonzero;stroke:none"
             id="path38" /></g><g
           id="g40"
           transform="translate(158.1459,146.8478)"><path
             d="M 0,0 0.008,-0.015 0.001,0 Z"
             style="fill:#000000;fill-opacity:1;fill-rule:nonzero;stroke:none"
             id="path42" /></g><g
           id="g44"
           transform="translate(158.1537,146.8331)"><path
             d="M 0,0 0.022,0.012 -0.007,0.015 Z"
             style="fill:#000000;fill-opacity:1;fill-rule:nonzero;stroke:none"
             id="path46" /></g><g
           id="g48"
           transform="translate(165.4379,140.1134)"><path
             d="M 0,0 Z"
             style="fill:#000000;fill-opacity:1;fill-rule:nonzero;stroke:none"
             id="path50" /></g></g></g></g></svg>
